<svg width="25" height="24" viewBox="0 0 25 24" fill="none" xmlns="http://www.w3.org/2000/svg">
<path d="M12.5322 11C14.7414 11 16.5322 9.20914 16.5322 7C16.5322 4.79086 14.7414 3 12.5322 3C10.3231 3 8.53223 4.79086 8.53223 7C8.53223 9.20914 10.3231 11 12.5322 11Z" stroke="#9E9E9E" stroke-width="2" stroke-linecap="round" stroke-linejoin="round"/>
<path d="M16.5319 21.1425C17.9199 20.8927 19.0204 20.512 19.5319 20.0004C19.6038 19.3535 19.5319 18.3337 19.5319 18.3337C19.5319 17.4497 19.1105 16.6018 18.3604 15.9767C15.9914 14.0026 8.07247 14.0026 5.70352 15.9767C4.95337 16.6018 4.53195 17.4497 4.53195 18.3337C4.53195 18.3337 4.46007 19.3535 4.53195 20.0004C5.04351 20.512 6.14392 20.8927 7.53194 21.1425" stroke="#9E9E9E" stroke-width="2" stroke-linecap="round" stroke-linejoin="round"/>
</svg>
