<svg width="19" height="19" viewBox="0 0 19 19" fill="none" xmlns="http://www.w3.org/2000/svg">
<path d="M17.1915 17.3086L11.8582 11.9753M1.1915 7.53082C1.1915 8.34793 1.35244 9.15704 1.66514 9.91196C1.97783 10.6669 2.43616 11.3528 3.01394 11.9306C3.59173 12.5084 4.27766 12.9667 5.03258 13.2794C5.78749 13.5921 6.59661 13.753 7.41372 13.753C8.23083 13.753 9.03995 13.5921 9.79486 13.2794C10.5498 12.9667 11.2357 12.5084 11.8135 11.9306C12.3913 11.3528 12.8496 10.6669 13.1623 9.91196C13.475 9.15704 13.6359 8.34793 13.6359 7.53082C13.6359 6.7137 13.475 5.90459 13.1623 5.14967C12.8496 4.39476 12.3913 3.70883 11.8135 3.13104C11.2357 2.55325 10.5498 2.09493 9.79486 1.78223C9.03995 1.46954 8.23083 1.30859 7.41372 1.30859C6.59661 1.30859 5.78749 1.46954 5.03258 1.78223C4.27766 2.09493 3.59173 2.55325 3.01394 3.13104C2.43616 3.70883 1.97783 4.39476 1.66514 5.14967C1.35244 5.90459 1.1915 6.7137 1.1915 7.53082Z" stroke="#737373" stroke-width="2.18947" stroke-linecap="round" stroke-linejoin="round"/>
</svg>
