<svg width="28" height="28" viewBox="0 0 28 28" fill="none" xmlns="http://www.w3.org/2000/svg">
<path d="M13.9996 18.375C12.8392 18.375 11.7264 17.9141 10.906 17.0936C10.0855 16.2731 9.62455 15.1603 9.62455 14C9.62455 12.8397 10.0855 11.7269 10.906 10.9064C11.7264 10.0859 12.8392 9.625 13.9996 9.625C15.1599 9.625 16.2727 10.0859 17.0931 10.9064C17.9136 11.7269 18.3746 12.8397 18.3746 14C18.3746 15.1603 17.9136 16.2731 17.0931 17.0936C16.2727 17.9141 15.1599 18.375 13.9996 18.375M23.2871 15.2125C23.3371 14.8125 23.3746 14.4125 23.3746 14C23.3746 13.5875 23.3371 13.175 23.2871 12.75L25.9246 10.7125C26.1621 10.525 26.2246 10.1875 26.0746 9.9125L23.5746 5.5875C23.4246 5.3125 23.0871 5.2 22.8121 5.3125L19.6996 6.5625C19.0496 6.075 18.3746 5.65 17.5871 5.3375L17.1246 2.025C17.0746 1.725 16.8121 1.5 16.4996 1.5H11.4996C11.1871 1.5 10.9246 1.725 10.8746 2.025L10.4121 5.3375C9.62456 5.65 8.94956 6.075 8.29956 6.5625L5.18706 5.3125C4.91206 5.2 4.57456 5.3125 4.42456 5.5875L1.92456 9.9125C1.76206 10.1875 1.83706 10.525 2.07456 10.7125L4.71206 12.75C4.66206 13.175 4.62456 13.5875 4.62456 14C4.62456 14.4125 4.66206 14.8125 4.71206 15.2125L2.07456 17.2875C1.83706 17.475 1.76206 17.8125 1.92456 18.0875L4.42456 22.4125C4.57456 22.6875 4.91206 22.7875 5.18706 22.6875L8.29956 21.425C8.94956 21.925 9.62456 22.35 10.4121 22.6625L10.8746 25.975C10.9246 26.275 11.1871 26.5 11.4996 26.5H16.4996C16.8121 26.5 17.0746 26.275 17.1246 25.975L17.5871 22.6625C18.3746 22.3375 19.0496 21.925 19.6996 21.425L22.8121 22.6875C23.0871 22.7875 23.4246 22.6875 23.5746 22.4125L26.0746 18.0875C26.2246 17.8125 26.1621 17.475 25.9246 17.2875L23.2871 15.2125Z" stroke="black" stroke-width="2"/>
</svg>
